<svg width="179" height="179" viewBox="0 0 179 179" fill="none" xmlns="http://www.w3.org/2000/svg">
<path d="M-0.00195226 88.7905C-0.0019503 133.557 89.0854 88.7905 89.0854 88.7905C89.0854 88.7905 -0.00195421 44.0241 -0.00195226 88.7905Z" fill="#E55733"/>
<path d="M178.172 88.7905C178.172 133.557 89.0845 88.7905 89.0845 88.7905C89.0845 88.7905 178.172 44.0241 178.172 88.7905Z" fill="#E55733"/>
<path d="M44.5431 165.942C83.312 188.326 89.0868 88.7904 89.0868 88.7904C89.0868 88.7904 5.77425 143.559 44.5431 165.942Z" fill="#E55733"/>
<path d="M133.629 11.6385C172.398 34.0217 89.0853 88.7905 89.0853 88.7905C89.0853 88.7905 94.8602 -10.7447 133.629 11.6385Z" fill="#E55733"/>
<path d="M133.629 165.942C94.8599 188.326 89.0851 88.7904 89.0851 88.7904C89.0851 88.7904 172.398 143.559 133.629 165.942Z" fill="#E55733"/>
<path d="M44.5428 11.6385C5.77399 34.0217 89.0865 88.7905 89.0865 88.7905C89.0865 88.7905 83.3117 -10.7447 44.5428 11.6385Z" fill="#E55733"/>
</svg>
