<svg width="24" height="25" viewBox="0 0 24 25" fill="none" xmlns="http://www.w3.org/2000/svg">
<path d="M17.0502 20.8113C16.0702 21.7613 15.0002 21.6112 13.9702 21.1612C12.8802 20.7013 11.8802 20.6812 10.7302 21.1612C9.29016 21.7812 8.53016 21.6013 7.67016 20.8113C2.79016 15.7812 3.51016 8.12125 9.05016 7.84125C10.4002 7.91125 11.3402 8.58125 12.1302 8.64125C13.3102 8.40125 14.4402 7.71125 15.7002 7.80125C17.2102 7.92125 18.3502 8.52125 19.1002 9.60125C15.9802 11.4712 16.7202 15.5813 19.5802 16.7313C19.0102 18.2313 18.2702 19.7213 17.0402 20.8213L17.0502 20.8113ZM12.0302 7.78125C11.8802 5.55125 13.6902 3.71125 15.7702 3.53125C16.0602 6.11125 13.4302 8.03125 12.0302 7.78125Z" fill="white"/>
</svg>
