<svg width="24" height="27" viewBox="0 0 24 27" fill="none" xmlns="http://www.w3.org/2000/svg">
<g clip-path="url(#clip0_1414_18251)">
<path d="M11.2083 12.6484L0.0996094 24.287C0.224359 24.7291 0.448539 25.1368 0.755011 25.479C1.06148 25.8212 1.44213 26.0888 1.86786 26.2613C2.2936 26.4338 2.75314 26.5067 3.21136 26.4744C3.66958 26.4421 4.11435 26.3055 4.51167 26.0749L17.0111 18.9561L11.2083 12.6484Z" fill="#EA4335"/>
<path d="M22.4405 10.67L17.0354 7.57397L10.9512 12.913L17.0601 18.9393L22.4241 15.8765C22.8993 15.6277 23.2973 15.2535 23.575 14.7946C23.8527 14.3357 23.9996 13.8096 23.9996 13.2732C23.9996 12.7368 23.8527 12.2106 23.575 11.7517C23.2973 11.2928 22.8993 10.9187 22.4241 10.6699L22.4405 10.67Z" fill="#FBBC04"/>
<path d="M0.099404 2.2019C0.0322971 2.45015 -0.00112731 2.70629 2.90029e-05 2.96344V23.5253C0.000691635 23.7824 0.0340852 24.0383 0.099404 24.287L11.5889 12.9464L0.099404 2.2019Z" fill="#4285F4"/>
<path d="M11.2911 13.2444L17.0359 7.57416L4.55311 0.422162C4.08345 0.147119 3.54928 0.00145553 3.00502 5.74972e-06C1.65436 -0.00261925 0.466922 0.893818 0.0996094 2.19366L11.2911 13.2444Z" fill="#34A853"/>
</g>
<defs>
<clipPath id="clip0_1414_18251">
<rect width="24" height="26.5312" fill="white"/>
</clipPath>
</defs>
</svg>
