<svg width="101" height="100" viewBox="0 0 101 100" fill="none" xmlns="http://www.w3.org/2000/svg">
<path d="M65.1963 40.625C66.056 40.3273 66.9436 40.0895 67.8544 39.9168C69.0083 39.698 70.1992 39.5834 71.4168 39.5834C81.9103 39.5834 90.4169 48.0899 90.4169 58.5834C90.4169 61.6064 89.7108 64.4646 88.4547 67.002C88.1099 67.6985 88.032 68.5051 88.3031 69.2335L90.1869 74.2949C90.9348 76.3043 89.0698 78.3061 87.0125 77.7019L80.8495 75.8919C80.2197 75.707 79.5463 75.7739 78.9437 76.0342C76.6357 77.031 74.0908 77.5834 71.4168 77.5834C68.3802 77.5834 65.5099 76.871 62.964 75.6042C62.4704 75.3586 61.989 75.0922 61.521 74.8061C59.7717 73.7368 58.2089 72.3925 56.8926 70.8334" fill="#EEEEEE"/>
<path d="M38.5007 76.7916C54.2408 76.7916 67.0007 64.0317 67.0007 48.2916C67.0007 32.5515 54.2408 19.7916 38.5007 19.7916C22.7606 19.7916 10.0007 32.5515 10.0007 48.2916C10.0007 53.0448 11.1642 57.5262 13.2221 61.4665C13.5818 62.1554 13.6565 62.9634 13.3854 63.6917L9.43897 74.2948C8.69107 76.3042 10.5562 78.306 12.6134 77.7018L24.8417 74.1106C25.4715 73.9257 26.1457 73.9901 26.7435 74.2612C30.3281 75.8865 34.3087 76.7916 38.5007 76.7916Z" fill="#022C22" stroke="#022C22" stroke-width="2.5"/>
</svg>
