<svg xmlns="http://www.w3.org/2000/svg" viewBox="0 0 443.92 73.6"><defs><style>.cls-1{fill:#008080;}</style></defs><g id="Layer_2" data-name="Layer 2"><g id="Layer_1-2" data-name="Layer 1"><path class="cls-1" d="M165.39,28.15a2.34,2.34,0,0,1-2.29-1.72,7.38,7.38,0,0,0-1.73-3.24A13.61,13.61,0,0,0,157,20.08a20.55,20.55,0,0,0-5.5-1.6,36.52,36.52,0,0,0-5.35-.44,24.53,24.53,0,0,0-5.15.54,15.25,15.25,0,0,0-4.42,1.6,9.2,9.2,0,0,0-3.07,2.72,6.74,6.74,0,0,0-1.17,4,3.52,3.52,0,0,0,0,.49,2.3,2.3,0,0,1,.05.48,6.17,6.17,0,0,0,3.55,5,34.16,34.16,0,0,0,7.78,2.77q4.62,1.13,9.87,2.14a44.94,44.94,0,0,1,9.73,3,21,21,0,0,1,7.48,5.49q3,3.51,3.12,9.53a14.18,14.18,0,0,1-2.1,8.32,15.48,15.48,0,0,1-5.78,5.15A25.65,25.65,0,0,1,158,71.82a60.66,60.66,0,0,1-9.05.68,40.17,40.17,0,0,1-13-1.8A23.31,23.31,0,0,1,127.63,66a17,17,0,0,1-4.52-6.46,22,22,0,0,1-1.18-4.25,2.4,2.4,0,0,1,2.36-2.81h5.4a2.37,2.37,0,0,1,2.32,1.8,8.88,8.88,0,0,0,1.65,3.6,12.75,12.75,0,0,0,4.18,3.5,18.25,18.25,0,0,0,5.4,1.85,30.9,30.9,0,0,0,5.64.54,49.15,49.15,0,0,0,5.49-.3,18.35,18.35,0,0,0,4.77-1.11A8,8,0,0,0,162.49,60a6.26,6.26,0,0,0,1.26-4.08v-.58a6.39,6.39,0,0,0-3.35-5.21,28.57,28.57,0,0,0-7.59-2.92q-4.51-1.11-9.72-2.13a54.5,54.5,0,0,1-9.72-2.82,22.06,22.06,0,0,1-7.64-5,12.78,12.78,0,0,1-3.4-8.61,18.56,18.56,0,0,1,1.36-8.8,15.43,15.43,0,0,1,4.91-6.08,21.5,21.5,0,0,1,8.07-3.55,48.38,48.38,0,0,1,10.85-1.12,34.3,34.3,0,0,1,12.88,2.05,22.88,22.88,0,0,1,7.88,5,16.76,16.76,0,0,1,4,6.28,24.78,24.78,0,0,1,.8,2.8,2.39,2.39,0,0,1-2.33,2.93Z"/><path class="cls-1" d="M181.35,48.19q0-12.16,6.76-18.09t18.24-5.93q11.37,0,18.08,5.93t6.71,18.09a28.67,28.67,0,0,1-1.89,11,19.65,19.65,0,0,1-5.2,7.44,20.81,20.81,0,0,1-7.88,4.23,35.88,35.88,0,0,1-19.64,0,21.25,21.25,0,0,1-7.93-4.23,19.74,19.74,0,0,1-5.3-7.44A27.89,27.89,0,0,1,181.35,48.19Zm25,15.26a21.92,21.92,0,0,0,6-.77A11,11,0,0,0,217,60.1a11.69,11.69,0,0,0,2.91-4.72,21.94,21.94,0,0,0,1-7.19,22.4,22.4,0,0,0-1-7.3,10.63,10.63,0,0,0-7.53-7.19,21.91,21.91,0,0,0-6-.78,21.29,21.29,0,0,0-6,.78,11.56,11.56,0,0,0-4.62,2.53,11.43,11.43,0,0,0-3,4.66,21.52,21.52,0,0,0-1.07,7.3,21.08,21.08,0,0,0,1.07,7.19,11.87,11.87,0,0,0,3,4.72,11.3,11.3,0,0,0,4.62,2.58A21.3,21.3,0,0,0,206.35,63.45Z"/><path class="cls-1" d="M275.58,69.4h0a2.38,2.38,0,0,0-4.09-1.67A18,18,0,0,1,270.14,69q-3.6,3-10,3.3a23.06,23.06,0,0,1-9-1.21A15.33,15.33,0,0,1,245,67a16.66,16.66,0,0,1-3.55-6.61,31.47,31.47,0,0,1-1.12-8.65V27.05a2.4,2.4,0,0,1,2.4-2.4h5.62a2.39,2.39,0,0,1,2.39,2.4V50.71a29.84,29.84,0,0,0,.44,5.26,10.5,10.5,0,0,0,1.7,4.23,8.43,8.43,0,0,0,3.5,2.82,16,16,0,0,0,11.52-.1,11.21,11.21,0,0,0,4.09-3.06,13.41,13.41,0,0,0,2.43-4.62,19.57,19.57,0,0,0,.83-5.79V27.05a2.39,2.39,0,0,1,2.39-2.4h5.62a2.39,2.39,0,0,1,2.39,2.4v42.3a2.39,2.39,0,0,1-2.37,2.39l-5.23.05A2.39,2.39,0,0,1,275.58,69.4Z"/><path class="cls-1" d="M298.53,69.33V4.58a2.39,2.39,0,0,1,2.4-2.39h5.61a2.39,2.39,0,0,1,2.4,2.39V69.33a2.39,2.39,0,0,1-2.4,2.39h-5.61A2.39,2.39,0,0,1,298.53,69.33Z"/><path class="cls-1" d="M322.65,69.33V4.58A2.39,2.39,0,0,1,325,2.19h5.62a2.39,2.39,0,0,1,2.39,2.39V69.33a2.39,2.39,0,0,1-2.39,2.39H325A2.39,2.39,0,0,1,322.65,69.33Z"/><path class="cls-1" d="M344.88,24.62l5.46-.05a2.4,2.4,0,0,1,2.26,1.56l14,37.61a.91.91,0,0,0,.85.59h0a.91.91,0,0,0,.85-.6l13.6-37.5a2.39,2.39,0,0,1,2.25-1.58h5.21a2.4,2.4,0,0,1,2.25,3.22L376.12,70.15a2.39,2.39,0,0,1-2.24,1.57H360a2.39,2.39,0,0,1-2.25-1.59L342.64,27.82A2.4,2.4,0,0,1,344.88,24.62Z"/><path class="cls-1" d="M440.39,56.26a2.39,2.39,0,0,1,2.34,2.93,15.06,15.06,0,0,1-1.93,4.65,14.47,14.47,0,0,1-5,4.77,21.41,21.41,0,0,1-7.1,2.43,52.77,52.77,0,0,1-8.7.68,29.33,29.33,0,0,1-10-1.6,21.19,21.19,0,0,1-7.53-4.58,19.82,19.82,0,0,1-4.82-7.29,26.59,26.59,0,0,1-1.7-9.77,31.43,31.43,0,0,1,1.26-8.75,21.18,21.18,0,0,1,4.18-7.83,21.75,21.75,0,0,1,7.74-5.64A28.43,28.43,0,0,1,421,24.07,25.41,25.41,0,0,1,431.17,26a19.37,19.37,0,0,1,7.3,5.39,22.27,22.27,0,0,1,4.27,8.37,33.49,33.49,0,0,1,1.18,8.33,2.4,2.4,0,0,1-2.4,2.46H408.75a2.41,2.41,0,0,0-2.33,3,11.62,11.62,0,0,0,3.8,6.42,15.22,15.22,0,0,0,10.45,3.55,22.93,22.93,0,0,0,6.66-.77,11.44,11.44,0,0,0,3.84-1.9,6.35,6.35,0,0,0,1.9-2.38l.26-.63a2.4,2.4,0,0,1,2.22-1.51Zm-9-11.28a2.4,2.4,0,0,0,2.31-3,16.15,16.15,0,0,0-.5-1.58,11.33,11.33,0,0,0-2.48-3.89,11.49,11.49,0,0,0-4.19-2.68,17.58,17.58,0,0,0-6.22-1,15,15,0,0,0-5.64,1,14.24,14.24,0,0,0-4.38,2.73,13,13,0,0,0-2.91,3.88,10.41,10.41,0,0,0-.56,1.35A2.4,2.4,0,0,0,409.06,45Z"/><path class="cls-1" d="M100.8,20.86c-1.85,12.2.26,27.21-10.13,38.72S69,70.77,53.2,73.6c2.36-15-.29-27.21,10.1-38.72S88.63,24.4,100.8,20.86Z"/><path class="cls-1" d="M52.11,0C55.69,6,62,11.78,61.63,20.54S56.21,33.22,50.32,40.15C46,32.76,40.4,28.38,40.79,19.61S48.07,5.93,52.11,0Z"/><path class="cls-1" d="M0,20.86c1.85,12.2-.27,27.21,10.12,38.72s21.64,11.19,37.48,14c-2.36-15,.28-27.21-10.11-38.72S12.17,24.4,0,20.86Z"/></g></g></svg>