<?xml version="1.0" encoding="utf-8"?>
<!-- Generator: Adobe Illustrator 23.0.4, SVG Export Plug-In . SVG Version: 6.00 Build 0)  -->
<svg version="1.1" id="arrow-frame" xmlns="http://www.w3.org/2000/svg" xmlns:xlink="http://www.w3.org/1999/xlink" x="0px"
	 y="0px" viewBox="0 0 343.1 395.1" style="enable-background:new 0 0 343.1 395.1;" xml:space="preserve">
<style type="text/css">
	.frame-color{fill:#000000;}
	.background-color{fill:#ffffff;}
	.text-color{fill:#FFFFFF;}
	.outline{fill:#E6E6E6;}
</style>
<path id="WhiteBackground" class="background-color" d="M328.4,1H76.7C69.1,1,63,7.2,63,14.7v251.7c0,7.6,6.2,13.7,13.7,13.7h251.6
	c7.6,0,13.7-6.2,13.8-13.7V14.7C342.1,7.1,335.9,1,328.4,1z"/>
<path id="Outline" class="outline" d="M328.3,281.1H76.7c-8.1,0-14.7-6.6-14.7-14.7V14.7C62,6.6,68.6,0,76.7,0h251.7
	c8.1,0,14.7,6.6,14.7,14.7v251.7C343,274.5,336.4,281.1,328.3,281.1z M76.7,2C69.7,2,64,7.7,64,14.7v251.7c0,7,5.7,12.7,12.7,12.7
	h251.6c7,0,12.7-5.7,12.8-12.7V14.7c0-7-5.7-12.7-12.7-12.7H76.7z"/>

	<path id="CallToActionArrow" class="frame-color" d="M43.2,177.1L43.2,177.1
	c0.2-3.4,0.5-6.9,0.8-10.3c0.4-3.4,0.8-6.8,1.4-10.1c0.6-3.3,1.3-6.6,2.1-9.8c0.9-3.1,1.9-6.2,3.2-8.7l0,0c0.1-0.3,0.2-0.7,0.3-1.1
	c0.6-3.2-1.4-6.3-4.6-6.9l-0.3-0.1c-0.4-0.1-0.6-0.1-0.9-0.1c-0.3,0-0.5-0.1-0.8-0.1c-0.5,0-1-0.1-1.5-0.1c-1,0-2,0.1-3,0.1
	c-2,0.2-3.9,0.4-5.8,0.7c-3.8,0.6-7.6,1.4-11.2,2.4c-3.6,1.1-7.2,2.3-10.6,3.8c-1.7,0.7-3.4,1.6-5.1,2.3c-1.7,0.8-3.3,1.8-4.9,2.6
	c-0.5,0.3-0.8,0.8-0.6,1.4c0.2,0.7,0.8,1.1,1.5,0.9h0.1c1.8-0.4,3.5-0.9,5.2-1.3c1.8-0.4,3.5-0.8,5.2-1c3.5-0.7,7-1,10.5-1.2
	c2.2-0.1,4.5-0.1,6.7-0.1c-4.6,5.4-8.6,11.2-11.9,17.2c-4.5,8.1-8,16.6-10.8,25.3C2.7,200.3,0,218.4,0,236.5c0,18,2.7,36.1,8.3,53.2
	c5.7,17.1,14.3,33.1,25.6,47c0.5,0.6,1.4,0.8,2.1,0.3c0.7-0.5,0.8-1.5,0.3-2.1l0,0c-10.4-14-18.2-29.9-22.9-46.6s-6.5-34.2-5.8-51.4
	c0.7-17.3,4-34.4,9.9-50.5c3-8,6.6-15.8,11-23c2.8-4.6,5.9-8.9,9.4-12.8c0,2,0,3.9,0.1,5.9c0.2,3.6,0.4,7.1,0.8,10.6
	c0.4,3.5,0.8,7,1.4,10.5c0.1,0.7,0.7,1.3,1.5,1.4C42.4,178.7,43.2,178,43.2,177.1z"></path>
	<g transform="rotate(-5) translate(-45 15)">
		<svg id="TextArea" x="68" y="245" width="290" height="140" viewBox="0 0 4.9521484375 17.588541666667" preserveAspectRatio="xMinYMid meet">
<svg version="1.1" xmlns="http://www.w3.org/2000/svg"><path class="frame-color" fill="#FFFFFF" d=" "/></svg>
</svg>
	</g>


<svg xmlns="http://www.w3.org/2000/svg" xmlns:xlink="http://www.w3.org/1999/xlink" version="1.1" width="268" height="268" viewBox="0 0 2000 2000" x="68" y="6.1" shape-rendering="crispEdges"><defs/><rect x="0" y="0" width="2000" height="2000" fill="#ffffff"/><rect x="840" y="200" width="64" height="64" fill="#000000"/><rect x="1160" y="200" width="64" height="64" fill="#000000"/><rect x="712" y="264" width="64" height="64" fill="#000000"/><rect x="776" y="264" width="64" height="64" fill="#000000"/><rect x="840" y="264" width="64" height="64" fill="#000000"/><rect x="1032" y="264" width="64" height="64" fill="#000000"/><rect x="1096" y="264" width="64" height="64" fill="#000000"/><rect x="1224" y="264" width="64" height="64" fill="#000000"/><rect x="712" y="328" width="64" height="64" fill="#000000"/><rect x="1160" y="328" width="64" height="64" fill="#000000"/><rect x="1224" y="328" width="64" height="64" fill="#000000"/><rect x="776" y="392" width="64" height="64" fill="#000000"/><rect x="968" y="392" width="64" height="64" fill="#000000"/><rect x="1160" y="392" width="64" height="64" fill="#000000"/><rect x="1224" y="392" width="64" height="64" fill="#000000"/><rect x="712" y="456" width="64" height="64" fill="#000000"/><rect x="776" y="456" width="64" height="64" fill="#000000"/><rect x="840" y="456" width="64" height="64" fill="#000000"/><rect x="968" y="456" width="64" height="64" fill="#000000"/><rect x="1032" y="456" width="64" height="64" fill="#000000"/><rect x="1096" y="456" width="64" height="64" fill="#000000"/><rect x="1224" y="456" width="64" height="64" fill="#000000"/><rect x="712" y="520" width="64" height="64" fill="#000000"/><rect x="840" y="520" width="64" height="64" fill="#000000"/><rect x="968" y="520" width="64" height="64" fill="#000000"/><rect x="1160" y="520" width="64" height="64" fill="#000000"/><rect x="712" y="584" width="64" height="64" fill="#000000"/><rect x="840" y="584" width="64" height="64" fill="#000000"/><rect x="968" y="584" width="64" height="64" fill="#000000"/><rect x="1096" y="584" width="64" height="64" fill="#000000"/><rect x="1224" y="584" width="64" height="64" fill="#000000"/><rect x="712" y="648" width="64" height="64" fill="#000000"/><rect x="840" y="648" width="64" height="64" fill="#000000"/><rect x="904" y="648" width="64" height="64" fill="#000000"/><rect x="200" y="712" width="64" height="64" fill="#000000"/><rect x="264" y="712" width="64" height="64" fill="#000000"/><rect x="392" y="712" width="64" height="64" fill="#000000"/><rect x="584" y="712" width="64" height="64" fill="#000000"/><rect x="648" y="712" width="64" height="64" fill="#000000"/><rect x="904" y="712" width="64" height="64" fill="#000000"/><rect x="968" y="712" width="64" height="64" fill="#000000"/><rect x="1032" y="712" width="64" height="64" fill="#000000"/><rect x="1096" y="712" width="64" height="64" fill="#000000"/><rect x="1224" y="712" width="64" height="64" fill="#000000"/><rect x="1352" y="712" width="64" height="64" fill="#000000"/><rect x="1416" y="712" width="64" height="64" fill="#000000"/><rect x="1480" y="712" width="64" height="64" fill="#000000"/><rect x="1608" y="712" width="64" height="64" fill="#000000"/><rect x="1672" y="712" width="64" height="64" fill="#000000"/><rect x="200" y="776" width="64" height="64" fill="#000000"/><rect x="264" y="776" width="64" height="64" fill="#000000"/><rect x="648" y="776" width="64" height="64" fill="#000000"/><rect x="776" y="776" width="64" height="64" fill="#000000"/><rect x="904" y="776" width="64" height="64" fill="#000000"/><rect x="968" y="776" width="64" height="64" fill="#000000"/><rect x="1032" y="776" width="64" height="64" fill="#000000"/><rect x="1160" y="776" width="64" height="64" fill="#000000"/><rect x="1224" y="776" width="64" height="64" fill="#000000"/><rect x="1352" y="776" width="64" height="64" fill="#000000"/><rect x="1480" y="776" width="64" height="64" fill="#000000"/><rect x="1672" y="776" width="64" height="64" fill="#000000"/><rect x="328" y="840" width="64" height="64" fill="#000000"/><rect x="520" y="840" width="64" height="64" fill="#000000"/><rect x="584" y="840" width="64" height="64" fill="#000000"/><rect x="904" y="840" width="64" height="64" fill="#000000"/><rect x="968" y="840" width="64" height="64" fill="#000000"/><rect x="1032" y="840" width="64" height="64" fill="#000000"/><rect x="1288" y="840" width="64" height="64" fill="#000000"/><rect x="1352" y="840" width="64" height="64" fill="#000000"/><rect x="1416" y="840" width="64" height="64" fill="#000000"/><rect x="1544" y="840" width="64" height="64" fill="#000000"/><rect x="1608" y="840" width="64" height="64" fill="#000000"/><rect x="200" y="904" width="64" height="64" fill="#000000"/><rect x="392" y="904" width="64" height="64" fill="#000000"/><rect x="456" y="904" width="64" height="64" fill="#000000"/><rect x="520" y="904" width="64" height="64" fill="#000000"/><rect x="648" y="904" width="64" height="64" fill="#000000"/><rect x="776" y="904" width="64" height="64" fill="#000000"/><rect x="840" y="904" width="64" height="64" fill="#000000"/><rect x="904" y="904" width="64" height="64" fill="#000000"/><rect x="968" y="904" width="64" height="64" fill="#000000"/><rect x="1096" y="904" width="64" height="64" fill="#000000"/><rect x="1224" y="904" width="64" height="64" fill="#000000"/><rect x="1288" y="904" width="64" height="64" fill="#000000"/><rect x="1352" y="904" width="64" height="64" fill="#000000"/><rect x="1416" y="904" width="64" height="64" fill="#000000"/><rect x="1480" y="904" width="64" height="64" fill="#000000"/><rect x="1736" y="904" width="64" height="64" fill="#000000"/><rect x="328" y="968" width="64" height="64" fill="#000000"/><rect x="520" y="968" width="64" height="64" fill="#000000"/><rect x="584" y="968" width="64" height="64" fill="#000000"/><rect x="648" y="968" width="64" height="64" fill="#000000"/><rect x="840" y="968" width="64" height="64" fill="#000000"/><rect x="904" y="968" width="64" height="64" fill="#000000"/><rect x="1032" y="968" width="64" height="64" fill="#000000"/><rect x="1096" y="968" width="64" height="64" fill="#000000"/><rect x="1224" y="968" width="64" height="64" fill="#000000"/><rect x="1352" y="968" width="64" height="64" fill="#000000"/><rect x="1416" y="968" width="64" height="64" fill="#000000"/><rect x="1608" y="968" width="64" height="64" fill="#000000"/><rect x="1672" y="968" width="64" height="64" fill="#000000"/><rect x="1736" y="968" width="64" height="64" fill="#000000"/><rect x="392" y="1032" width="64" height="64" fill="#000000"/><rect x="712" y="1032" width="64" height="64" fill="#000000"/><rect x="776" y="1032" width="64" height="64" fill="#000000"/><rect x="904" y="1032" width="64" height="64" fill="#000000"/><rect x="1096" y="1032" width="64" height="64" fill="#000000"/><rect x="1416" y="1032" width="64" height="64" fill="#000000"/><rect x="1480" y="1032" width="64" height="64" fill="#000000"/><rect x="1608" y="1032" width="64" height="64" fill="#000000"/><rect x="1672" y="1032" width="64" height="64" fill="#000000"/><rect x="1736" y="1032" width="64" height="64" fill="#000000"/><rect x="200" y="1096" width="64" height="64" fill="#000000"/><rect x="328" y="1096" width="64" height="64" fill="#000000"/><rect x="584" y="1096" width="64" height="64" fill="#000000"/><rect x="776" y="1096" width="64" height="64" fill="#000000"/><rect x="840" y="1096" width="64" height="64" fill="#000000"/><rect x="904" y="1096" width="64" height="64" fill="#000000"/><rect x="1032" y="1096" width="64" height="64" fill="#000000"/><rect x="1160" y="1096" width="64" height="64" fill="#000000"/><rect x="1224" y="1096" width="64" height="64" fill="#000000"/><rect x="1352" y="1096" width="64" height="64" fill="#000000"/><rect x="1480" y="1096" width="64" height="64" fill="#000000"/><rect x="1544" y="1096" width="64" height="64" fill="#000000"/><rect x="1736" y="1096" width="64" height="64" fill="#000000"/><rect x="264" y="1160" width="64" height="64" fill="#000000"/><rect x="328" y="1160" width="64" height="64" fill="#000000"/><rect x="392" y="1160" width="64" height="64" fill="#000000"/><rect x="456" y="1160" width="64" height="64" fill="#000000"/><rect x="776" y="1160" width="64" height="64" fill="#000000"/><rect x="904" y="1160" width="64" height="64" fill="#000000"/><rect x="1032" y="1160" width="64" height="64" fill="#000000"/><rect x="1096" y="1160" width="64" height="64" fill="#000000"/><rect x="1352" y="1160" width="64" height="64" fill="#000000"/><rect x="1416" y="1160" width="64" height="64" fill="#000000"/><rect x="200" y="1224" width="64" height="64" fill="#000000"/><rect x="264" y="1224" width="64" height="64" fill="#000000"/><rect x="328" y="1224" width="64" height="64" fill="#000000"/><rect x="392" y="1224" width="64" height="64" fill="#000000"/><rect x="584" y="1224" width="64" height="64" fill="#000000"/><rect x="648" y="1224" width="64" height="64" fill="#000000"/><rect x="712" y="1224" width="64" height="64" fill="#000000"/><rect x="776" y="1224" width="64" height="64" fill="#000000"/><rect x="840" y="1224" width="64" height="64" fill="#000000"/><rect x="968" y="1224" width="64" height="64" fill="#000000"/><rect x="1032" y="1224" width="64" height="64" fill="#000000"/><rect x="1096" y="1224" width="64" height="64" fill="#000000"/><rect x="1224" y="1224" width="64" height="64" fill="#000000"/><rect x="1288" y="1224" width="64" height="64" fill="#000000"/><rect x="1352" y="1224" width="64" height="64" fill="#000000"/><rect x="1416" y="1224" width="64" height="64" fill="#000000"/><rect x="1480" y="1224" width="64" height="64" fill="#000000"/><rect x="1736" y="1224" width="64" height="64" fill="#000000"/><rect x="712" y="1288" width="64" height="64" fill="#000000"/><rect x="968" y="1288" width="64" height="64" fill="#000000"/><rect x="1032" y="1288" width="64" height="64" fill="#000000"/><rect x="1224" y="1288" width="64" height="64" fill="#000000"/><rect x="1480" y="1288" width="64" height="64" fill="#000000"/><rect x="712" y="1352" width="64" height="64" fill="#000000"/><rect x="776" y="1352" width="64" height="64" fill="#000000"/><rect x="904" y="1352" width="64" height="64" fill="#000000"/><rect x="968" y="1352" width="64" height="64" fill="#000000"/><rect x="1160" y="1352" width="64" height="64" fill="#000000"/><rect x="1224" y="1352" width="64" height="64" fill="#000000"/><rect x="1352" y="1352" width="64" height="64" fill="#000000"/><rect x="1480" y="1352" width="64" height="64" fill="#000000"/><rect x="1544" y="1352" width="64" height="64" fill="#000000"/><rect x="1672" y="1352" width="64" height="64" fill="#000000"/><rect x="1736" y="1352" width="64" height="64" fill="#000000"/><rect x="968" y="1416" width="64" height="64" fill="#000000"/><rect x="1096" y="1416" width="64" height="64" fill="#000000"/><rect x="1224" y="1416" width="64" height="64" fill="#000000"/><rect x="1480" y="1416" width="64" height="64" fill="#000000"/><rect x="1544" y="1416" width="64" height="64" fill="#000000"/><rect x="1608" y="1416" width="64" height="64" fill="#000000"/><rect x="1672" y="1416" width="64" height="64" fill="#000000"/><rect x="1736" y="1416" width="64" height="64" fill="#000000"/><rect x="776" y="1480" width="64" height="64" fill="#000000"/><rect x="968" y="1480" width="64" height="64" fill="#000000"/><rect x="1032" y="1480" width="64" height="64" fill="#000000"/><rect x="1096" y="1480" width="64" height="64" fill="#000000"/><rect x="1160" y="1480" width="64" height="64" fill="#000000"/><rect x="1224" y="1480" width="64" height="64" fill="#000000"/><rect x="1288" y="1480" width="64" height="64" fill="#000000"/><rect x="1352" y="1480" width="64" height="64" fill="#000000"/><rect x="1416" y="1480" width="64" height="64" fill="#000000"/><rect x="1480" y="1480" width="64" height="64" fill="#000000"/><rect x="1608" y="1480" width="64" height="64" fill="#000000"/><rect x="1672" y="1480" width="64" height="64" fill="#000000"/><rect x="712" y="1544" width="64" height="64" fill="#000000"/><rect x="840" y="1544" width="64" height="64" fill="#000000"/><rect x="904" y="1544" width="64" height="64" fill="#000000"/><rect x="1032" y="1544" width="64" height="64" fill="#000000"/><rect x="1096" y="1544" width="64" height="64" fill="#000000"/><rect x="1160" y="1544" width="64" height="64" fill="#000000"/><rect x="1224" y="1544" width="64" height="64" fill="#000000"/><rect x="1288" y="1544" width="64" height="64" fill="#000000"/><rect x="1416" y="1544" width="64" height="64" fill="#000000"/><rect x="1480" y="1544" width="64" height="64" fill="#000000"/><rect x="776" y="1608" width="64" height="64" fill="#000000"/><rect x="968" y="1608" width="64" height="64" fill="#000000"/><rect x="1160" y="1608" width="64" height="64" fill="#000000"/><rect x="1416" y="1608" width="64" height="64" fill="#000000"/><rect x="1544" y="1608" width="64" height="64" fill="#000000"/><rect x="1608" y="1608" width="64" height="64" fill="#000000"/><rect x="1736" y="1608" width="64" height="64" fill="#000000"/><rect x="712" y="1672" width="64" height="64" fill="#000000"/><rect x="776" y="1672" width="64" height="64" fill="#000000"/><rect x="1032" y="1672" width="64" height="64" fill="#000000"/><rect x="1096" y="1672" width="64" height="64" fill="#000000"/><rect x="1224" y="1672" width="64" height="64" fill="#000000"/><rect x="1288" y="1672" width="64" height="64" fill="#000000"/><rect x="1544" y="1672" width="64" height="64" fill="#000000"/><rect x="1672" y="1672" width="64" height="64" fill="#000000"/><rect x="1736" y="1672" width="64" height="64" fill="#000000"/><rect x="712" y="1736" width="64" height="64" fill="#000000"/><rect x="1224" y="1736" width="64" height="64" fill="#000000"/><rect x="1480" y="1736" width="64" height="64" fill="#000000"/><rect x="1544" y="1736" width="64" height="64" fill="#000000"/><rect x="1672" y="1736" width="64" height="64" fill="#000000"/><rect x="1736" y="1736" width="64" height="64" fill="#000000"/><svg version="1.1" id="Ebene_1" x="200" y="200" viewBox="0 0 700 700" style="enable-background:new 0 0 700 700;" xml:space="preserve" width="448" height="448" shape-rendering="auto">

<path fill="#000000" d="M21.2-0.1C9.5-0.1-0.1,9.5-0.1,21.2v78.8v100v100v100v100v100v78.8c0,11.7,9.5,21.3,21.3,21.3h657.6  c11.7,0,21.3-9.5,21.3-21.3V600V500V400V300V200v-100V21.2c0-11.7-9.5-21.3-21.3-21.3H21.2z M600,200v100v100v100v87.8  c0,6.8-5.5,12.2-12.2,12.2H112.2c-6.8,0-12.2-5.5-12.2-12.2V500V400V300V200v-87.8c0-6.8,5.5-12.2,12.2-12.2h475.6  c6.8,0,12.2,5.5,12.2,12.2V200z"/>
</svg>
<svg version="1.1" id="Ebene_1" x="200" y="200" viewBox="0 0 700 700" style="enable-background:new 0 0 700 700;" xml:space="preserve" width="448" height="448" shape-rendering="auto">

<path fill="#000000" d="M500,400V300v-78.8c0-11.7-9.5-21.3-21.3-21.3H221.2c-11.7,0-21.3,9.5-21.3,21.3V300v100v78.8    c0,11.7,9.5,21.3,21.3,21.3h257.5c11.7,0,21.3-9.5,21.3-21.3V400z"/>
</svg>
<svg version="1.1" id="Ebene_1" x="1352" y="200" viewBox="0 0 700 700" style="enable-background:new 0 0 700 700;" xml:space="preserve" width="448" height="448" shape-rendering="auto">

<path fill="#000000" d="M21.2-0.1C9.5-0.1-0.1,9.5-0.1,21.2v78.8v100v100v100v100v100v78.8c0,11.7,9.5,21.3,21.3,21.3h657.6  c11.7,0,21.3-9.5,21.3-21.3V600V500V400V300V200v-100V21.2c0-11.7-9.5-21.3-21.3-21.3H21.2z M600,200v100v100v100v87.8  c0,6.8-5.5,12.2-12.2,12.2H112.2c-6.8,0-12.2-5.5-12.2-12.2V500V400V300V200v-87.8c0-6.8,5.5-12.2,12.2-12.2h475.6  c6.8,0,12.2,5.5,12.2,12.2V200z"/>
</svg>
<svg version="1.1" id="Ebene_1" x="1352" y="200" viewBox="0 0 700 700" style="enable-background:new 0 0 700 700;" xml:space="preserve" width="448" height="448" shape-rendering="auto">

<path fill="#000000" d="M500,400V300v-78.8c0-11.7-9.5-21.3-21.3-21.3H221.2c-11.7,0-21.3,9.5-21.3,21.3V300v100v78.8    c0,11.7,9.5,21.3,21.3,21.3h257.5c11.7,0,21.3-9.5,21.3-21.3V400z"/>
</svg>
<svg version="1.1" id="Ebene_1" x="200" y="1352" viewBox="0 0 700 700" style="enable-background:new 0 0 700 700;" xml:space="preserve" width="448" height="448" shape-rendering="auto">

<path fill="#000000" d="M21.2-0.1C9.5-0.1-0.1,9.5-0.1,21.2v78.8v100v100v100v100v100v78.8c0,11.7,9.5,21.3,21.3,21.3h657.6  c11.7,0,21.3-9.5,21.3-21.3V600V500V400V300V200v-100V21.2c0-11.7-9.5-21.3-21.3-21.3H21.2z M600,200v100v100v100v87.8  c0,6.8-5.5,12.2-12.2,12.2H112.2c-6.8,0-12.2-5.5-12.2-12.2V500V400V300V200v-87.8c0-6.8,5.5-12.2,12.2-12.2h475.6  c6.8,0,12.2,5.5,12.2,12.2V200z"/>
</svg>
<svg version="1.1" id="Ebene_1" x="200" y="1352" viewBox="0 0 700 700" style="enable-background:new 0 0 700 700;" xml:space="preserve" width="448" height="448" shape-rendering="auto">

<path fill="#000000" d="M500,400V300v-78.8c0-11.7-9.5-21.3-21.3-21.3H221.2c-11.7,0-21.3,9.5-21.3,21.3V300v100v78.8    c0,11.7,9.5,21.3,21.3,21.3h257.5c11.7,0,21.3-9.5,21.3-21.3V400z"/>
</svg>
</svg>

</svg>
