<svg width="100" height="100" viewBox="0 0 100 100" fill="none" xmlns="http://www.w3.org/2000/svg">
<path d="M15.2705 33.88C15.2705 26.66 19.6704 22 26.4707 22C33.2705 22 37.6504 26.66 37.6504 33.88C37.6504 41.6 32.6309 47.9 26.4707 47.9C20.2905 47.9 15.2705 41.6 15.2705 33.88ZM97.8506 87.72V93.9401C97.8506 96.1801 96.0308 98 93.7905 98H53.2305C50.9907 98 49.1504 96.1801 49.1504 93.9401V87.72C49.1504 85.02 50.7505 82.6 53.2105 81.54C66.5508 75.04 80.4106 75 93.8906 81.58C96.2705 82.62 97.8506 85.02 97.8506 87.72ZM46.7705 72.2H6.21045C3.97071 72.2 2.15039 70.36 2.15039 68.12V61.9C2.15039 59.22 3.73047 56.8 6.19043 55.74C19.8306 49.42 33.6309 49.4 46.8706 55.76C49.2505 56.8 50.8506 59.22 50.8506 61.9V68.12C50.8506 70.36 49.0107 72.2 46.7705 72.2ZM84.6704 59.6801C84.6704 67.4201 79.6504 73.7 73.4707 73.7C67.3105 73.7 62.2905 67.4201 62.2905 59.6801C62.2905 52.48 66.6704 47.8201 73.4707 47.8201C80.2705 47.8201 84.6704 52.48 84.6704 59.6801Z" fill="#022C22"/>
</svg>
