<svg id="visual" viewBox="0 0 1600 340" width="100%" height="auto" xmlns="http://www.w3.org/2000/svg" xmlns:xlink="http://www.w3.org/1999/xlink" version="1.1"><rect x="0" y="0" width="100%" height="100%" fill="#ffffff"></rect><path d="M0 121L38.2 119.7C76.3 118.3 152.7 115.7 228.8 124.3C305 133 381 153 457.2 167.2C533.3 181.3 609.7 189.7 685.8 177.7C762 165.7 838 133.3 914.2 118C990.3 102.7 1066.7 104.3 1142.8 110.8C1219 117.3 1295 128.7 1371.2 146.5C1447.3 164.3 1523.7 188.7 1561.8 200.8L1600 213L1600 341L1561.8 341C1523.7 341 1447.3 341 1371.2 341C1295 341 1219 341 1142.8 341C1066.7 341 990.3 341 914.2 341C838 341 762 341 685.8 341C609.7 341 533.3 341 457.2 341C381 341 305 341 228.8 341C152.7 341 76.3 341 38.2 341L0 341Z" fill="#022C22" stroke-linecap="round" stroke-linejoin="miter"></path></svg>