<svg 
    id="visual" 
    viewBox="0 0 1400 341" 
    xmlns="http://www.w3.org/2000/svg" 
    xmlns:xlink="http://www.w3.org/1999/xlink" 
    version="1.1" 
    width="100%" 
    height="50%" 
    preserveAspectRatio="xMidYMid slice"
>
    <rect x="0" y="0" width="100%" height="100%" fill="#ffffff"></rect>
    <path d="M0 269L33.3 264.2C66.7 259.3 133.3 249.7 200 242C266.7 234.3 333.3 228.7 400 233.2C466.7 237.7 533.3 252.3 600 253.8C666.7 255.3 733.3 243.7 800 235.5C866.7 227.3 933.3 222.7 1000 220.2C1066.7 217.7 1133.3 217.3 1200 219.3C1266.7 221.3 1333.3 225.7 1366.7 227.8L1400 230L1400 341L1366.7 341C1333.3 341 1266.7 341 1200 341C1133.3 341 1066.7 341 1000 341C933.3 341 866.7 341 800 341C733.3 341 666.7 341 600 341C533.3 341 466.7 341 400 341C333.3 341 266.7 341 200 341C133.3 341 66.7 341 33.3 341L0 341Z" 
        fill="#022C22" 
        stroke-linecap="round" 
        stroke-linejoin="miter">
    </path>
</svg>
