<svg id="visual" viewBox="0 0 1600 140" width="100%" height="auto" xmlns="http://www.w3.org/2000/svg" xmlns:xlink="http://www.w3.org/1999/xlink" version="1.1"><rect x="0" y="0" width="100%" height="100%" fill="#022C22"></rect><path d="M0 56L38.2 57.5C76.3 59 152.7 62 228.8 67.7C305 73.3 381 81.7 457.2 86C533.3 90.3 609.7 90.7 685.8 83.2C762 75.7 838 60.3 914.2 54.2C990.3 48 1066.7 51 1142.8 55.2C1219 59.3 1295 64.7 1371.2 66.8C1447.3 69 1523.7 68 1561.8 67.5L1600 67L1600 141L1561.8 141C1523.7 141 1447.3 141 1371.2 141C1295 141 1219 141 1142.8 141C1066.7 141 990.3 141 914.2 141C838 141 762 141 685.8 141C609.7 141 533.3 141 457.2 141C381 141 305 141 228.8 141C152.7 141 76.3 141 38.2 141L0 141Z" fill="#FFFBF4" stroke-linecap="round" stroke-linejoin="miter"></path></svg>