<svg id="visual" viewBox="0 0 1600 140" width="100%" height="auto" xmlns="http://www.w3.org/2000/svg" xmlns:xlink="http://www.w3.org/1999/xlink" version="1.1"><rect x="0" y="0" width="100%" height="100%" fill="#FFFBF4"></rect><path d="M0 82L38.2 80.5C76.3 79 152.7 76 228.8 70.3C305 64.7 381 56.3 457.2 52C533.3 47.7 609.7 47.3 685.8 54.8C762 62.3 838 77.7 914.2 83.8C990.3 90 1066.7 87 1142.8 82.8C1219 78.7 1295 73.3 1371.2 71.2C1447.3 69 1523.7 70 1561.8 70.5L1600 71L1600 0L1561.8 0C1523.7 0 1447.3 0 1371.2 0C1295 0 1219 0 1142.8 0C1066.7 0 990.3 0 914.2 0C838 0 762 0 685.8 0C609.7 0 533.3 0 457.2 0C381 0 305 0 228.8 0C152.7 0 76.3 0 38.2 0L0 0Z" fill="#022C22" stroke-linecap="round" stroke-linejoin="miter"></path></svg>