<svg width="21" height="20" viewBox="0 0 21 20" fill="none" xmlns="http://www.w3.org/2000/svg">
<path d="M6.61358 5.21967C6.32069 4.92678 5.84582 4.92678 5.55292 5.21967C5.26003 5.51256 5.26003 5.98744 5.55292 6.28033L9.27259 10L5.55292 13.7197C5.26003 14.0126 5.26003 14.4874 5.55292 14.7803C5.84582 15.0732 6.32069 15.0732 6.61358 14.7803L10.3333 11.0607L14.0529 14.7803C14.3458 15.0732 14.8207 15.0732 15.1136 14.7803C15.4065 14.4874 15.4065 14.0126 15.1136 13.7197L11.3939 10L15.1136 6.28033C15.4065 5.98744 15.4065 5.51256 15.1136 5.21967C14.8207 4.92678 14.3458 4.92678 14.0529 5.21967L10.3333 8.93934L6.61358 5.21967Z" fill="#0F172A"/>
</svg>
