<svg width="21" height="20" viewBox="0 0 21 20" fill="none" xmlns="http://www.w3.org/2000/svg">
<path d="M5.875 2.5V4.375M14.625 2.5V4.375M2.75 15.625V6.25C2.75 5.21447 3.58947 4.375 4.625 4.375H15.875C16.9105 4.375 17.75 5.21447 17.75 6.25V15.625M2.75 15.625C2.75 16.6605 3.58947 17.5 4.625 17.5H15.875C16.9105 17.5 17.75 16.6605 17.75 15.625M2.75 15.625V9.375C2.75 8.33947 3.58947 7.5 4.625 7.5H15.875C16.9105 7.5 17.75 8.33947 17.75 9.375V15.625M10.25 10.625H10.2563V10.6313H10.25V10.625ZM10.25 12.5H10.2563V12.5063H10.25V12.5ZM10.25 14.375H10.2563V14.3813H10.25V14.375ZM8.375 12.5H8.38125V12.5063H8.375V12.5ZM8.375 14.375H8.38125V14.3813H8.375V14.375ZM6.5 12.5H6.50625V12.5063H6.5V12.5ZM6.5 14.375H6.50625V14.3813H6.5V14.375ZM12.125 10.625H12.1313V10.6313H12.125V10.625ZM12.125 12.5H12.1313V12.5063H12.125V12.5ZM12.125 14.375H12.1313V14.3813H12.125V14.375ZM14 10.625H14.0063V10.6313H14V10.625ZM14 12.5H14.0063V12.5063H14V12.5Z" stroke="#022C22" stroke-width="1.25" stroke-linecap="round" stroke-linejoin="round"/>
</svg>
