<svg width="21" height="20" viewBox="0 0 21 20" fill="none" xmlns="http://www.w3.org/2000/svg">
<path fill-rule="evenodd" clip-rule="evenodd" d="M10.75 2C8.51407 2 6.31943 2.17905 4.17976 2.52374C2.74339 2.75513 1.75 4.01325 1.75 5.42588V10.5741C1.75 11.9867 2.74338 13.2449 4.17976 13.4763C5.34764 13.6644 6.53193 13.8032 7.7304 13.8905C8.0101 13.9108 8.2512 14.0703 8.37247 14.3035L10.0846 17.596C10.2137 17.8443 10.4702 18 10.75 18C11.0298 18 11.2863 17.8443 11.4154 17.596L13.1275 14.3035C13.2488 14.0703 13.4899 13.9108 13.7696 13.8905C14.9681 13.8032 16.1524 13.6644 17.3202 13.4763C18.7566 13.2449 19.75 11.9867 19.75 10.5741V5.42588C19.75 4.01325 18.7566 2.75513 17.3202 2.52374C15.1806 2.17905 12.9859 2 10.75 2ZM7.5 6C7.08579 6 6.75 6.33579 6.75 6.75C6.75 7.16421 7.08579 7.5 7.5 7.5H14C14.4142 7.5 14.75 7.16421 14.75 6.75C14.75 6.33579 14.4142 6 14 6H7.5ZM7.5 8.5C7.08579 8.5 6.75 8.83579 6.75 9.25C6.75 9.66421 7.08579 10 7.5 10H11C11.4142 10 11.75 9.66421 11.75 9.25C11.75 8.83579 11.4142 8.5 11 8.5H7.5Z" fill="#022C22"/>
</svg>
