<svg width="21" height="20" viewBox="0 0 21 20" fill="none" xmlns="http://www.w3.org/2000/svg">
<path d="M3.375 5C3.375 3.96447 4.21447 3.125 5.25 3.125H7.125C8.16053 3.125 9 3.96447 9 5V6.875C9 7.91053 8.16053 8.75 7.125 8.75H5.25C4.21447 8.75 3.375 7.91053 3.375 6.875V5Z" stroke="#022C22" stroke-width="1.25" stroke-linecap="round" stroke-linejoin="round"/>
<path d="M3.375 13.125C3.375 12.0895 4.21447 11.25 5.25 11.25H7.125C8.16053 11.25 9 12.0895 9 13.125V15C9 16.0355 8.16053 16.875 7.125 16.875H5.25C4.21447 16.875 3.375 16.0355 3.375 15V13.125Z" stroke="#022C22" stroke-width="1.25" stroke-linecap="round" stroke-linejoin="round"/>
<path d="M11.5 5C11.5 3.96447 12.3395 3.125 13.375 3.125H15.25C16.2855 3.125 17.125 3.96447 17.125 5V6.875C17.125 7.91053 16.2855 8.75 15.25 8.75H13.375C12.3395 8.75 11.5 7.91053 11.5 6.875V5Z" stroke="#022C22" stroke-width="1.25" stroke-linecap="round" stroke-linejoin="round"/>
<path d="M11.5 13.125C11.5 12.0895 12.3395 11.25 13.375 11.25H15.25C16.2855 11.25 17.125 12.0895 17.125 13.125V15C17.125 16.0355 16.2855 16.875 15.25 16.875H13.375C12.3395 16.875 11.5 16.0355 11.5 15V13.125Z" stroke="#022C22" stroke-width="1.25" stroke-linecap="round" stroke-linejoin="round"/>
</svg>
