<svg width="21" height="20" viewBox="0 0 21 20" fill="none" xmlns="http://www.w3.org/2000/svg">
<path d="M15.7503 15.5993C15.9566 15.6163 16.1652 15.625 16.3758 15.625C17.2495 15.625 18.0882 15.4756 18.8679 15.201C18.8732 15.1347 18.8758 15.0677 18.8758 15C18.8758 13.6193 17.7566 12.5 16.3758 12.5C15.8528 12.5 15.3673 12.6606 14.966 12.9352M15.7503 15.5993C15.7504 15.6079 15.7504 15.6164 15.7504 15.625C15.7504 15.8125 15.74 15.9976 15.7199 16.1797C14.256 17.0197 12.5593 17.5 10.7504 17.5C8.94147 17.5 7.24476 17.0197 5.78079 16.1797C5.76069 15.9976 5.75037 15.8125 5.75037 15.625C5.75037 15.6165 5.75039 15.6079 5.75043 15.5994M15.7503 15.5993C15.7454 14.6188 15.4582 13.7051 14.966 12.9352M14.966 12.9352C14.0777 11.546 12.5216 10.625 10.7504 10.625C8.97936 10.625 7.42341 11.5458 6.53511 12.9347M6.53511 12.9347C6.13389 12.6604 5.64867 12.5 5.12598 12.5C3.74526 12.5 2.62598 13.6193 2.62598 15C2.62598 15.0677 2.62867 15.1347 2.63394 15.201C3.41364 15.4756 4.25236 15.625 5.12598 15.625C5.33626 15.625 5.54453 15.6163 5.75043 15.5994M6.53511 12.9347C6.04262 13.7047 5.75535 14.6187 5.75043 15.5994M13.2504 5.625C13.2504 7.00571 12.1311 8.125 10.7504 8.125C9.36965 8.125 8.25037 7.00571 8.25037 5.625C8.25037 4.24429 9.36965 3.125 10.7504 3.125C12.1311 3.125 13.2504 4.24429 13.2504 5.625ZM18.2504 8.125C18.2504 9.16053 17.4109 10 16.3754 10C15.3398 10 14.5004 9.16053 14.5004 8.125C14.5004 7.08947 15.3398 6.25 16.3754 6.25C17.4109 6.25 18.2504 7.08947 18.2504 8.125ZM7.00037 8.125C7.00037 9.16053 6.1609 10 5.12537 10C4.08983 10 3.25037 9.16053 3.25037 8.125C3.25037 7.08947 4.08983 6.25 5.12537 6.25C6.1609 6.25 7.00037 7.08947 7.00037 8.125Z" stroke="#022C22" stroke-width="1.25" stroke-linecap="round" stroke-linejoin="round"/>
</svg>
