<svg width="90" height="90" viewBox="0 0 90 90" fill="none" xmlns="http://www.w3.org/2000/svg">
<path d="M46.5858 0.507154C45.0221 -0.169051 44.0652 -0.169051 42.5014 0.507154C37.1236 2.83261 39.6557 22.6256 41.786 34.8711C37.1386 23.3433 28.8524 5.19077 23.0568 6.05085C21.3715 6.30095 20.5585 6.80556 19.5864 8.20475C16.5244 12.6122 26.8293 25.9719 34.9363 35.3184C25.2685 27.5973 11.5017 17.8429 7.22216 21.0812C5.86357 22.1093 5.39236 22.9421 5.21084 24.6361C4.62351 30.1174 20.9429 37.1189 32.6255 41.4058C20.3466 39.3841 2.69514 37.4416 0.507154 42.5015C-0.169051 44.0652 -0.169051 45.0221 0.507154 46.5859C2.69514 51.6458 20.3466 49.7033 32.6255 47.6816C20.9429 51.9685 4.6235 58.9699 5.21083 64.4512C5.39235 66.1453 5.86356 66.9781 7.22215 68.0062C11.5017 71.2445 25.2684 61.4902 34.9361 53.7691C26.8291 63.1157 16.5243 76.4753 19.5864 80.8826C20.5584 82.2818 21.3715 82.7864 23.0567 83.0365C28.8524 83.8966 37.1386 65.7438 41.7861 54.216C39.6558 66.4615 37.1236 86.2548 42.5014 88.5802C44.0652 89.2564 45.0221 89.2564 46.5858 88.5802C51.9639 86.2547 49.4313 66.4601 47.3009 54.2148C51.9483 65.7425 60.235 83.8967 66.0308 83.0365C67.716 82.7864 68.5291 82.2818 69.5012 80.8826C72.5632 76.4753 62.2584 63.1157 54.1514 53.7691C63.8192 61.4902 77.5859 71.2445 81.8654 68.0062C83.224 66.9781 83.6952 66.1453 83.8767 64.4512C84.464 58.97 68.1447 51.9685 56.4622 47.6816C68.7411 49.7033 86.3923 51.6458 88.5802 46.5859C89.2564 45.0221 89.2564 44.0652 88.5802 42.5015C86.3923 37.4416 68.7411 39.384 56.4622 41.4058C68.1447 37.1189 84.464 30.1174 83.8767 24.6361C83.6952 22.9421 83.224 22.1093 81.8654 21.0812C77.5858 17.8429 63.819 27.5973 54.1512 35.3185C62.2582 25.9719 72.5631 12.6122 69.5011 8.20475C68.529 6.80556 67.716 6.30095 66.0307 6.05085C60.2349 5.19074 51.9484 23.3446 47.301 34.8723C49.4313 22.627 51.9638 2.83269 46.5858 0.507154Z" fill="#EFF87A"/>
</svg>
