<svg width="48" height="48" viewBox="0 0 48 48" fill="none" xmlns="http://www.w3.org/2000/svg">
<path d="M13.7999 7.19995H34.1999C35.9504 7.19995 37.6291 7.89531 38.8668 9.13305C40.1046 10.3708 40.7999 12.0495 40.7999 13.8V34.1999C40.7999 35.9504 40.1046 37.6291 38.8668 38.8669C37.6291 40.1046 35.9504 40.7999 34.1999 40.7999H24.2903L21.8903 38.4H34.1999C35.3139 38.4 36.3821 37.9575 37.1698 37.1698C37.9574 36.3821 38.3999 35.3139 38.3999 34.1999V13.8C38.3999 12.686 37.9574 11.6178 37.1698 10.8301C36.3821 10.0424 35.3139 9.59995 34.1999 9.59995H13.7999C12.686 9.59995 11.6177 10.0424 10.8301 10.8301C10.0424 11.6178 9.59994 12.686 9.59994 13.8V21.6648C8.78151 21.7566 7.97628 21.9418 7.19994 22.2168V13.8C7.19994 12.0495 7.8953 10.3708 9.13304 9.13305C10.3708 7.89531 12.0495 7.19995 13.7999 7.19995ZM22.7999 33.5999C22.4817 33.5999 22.1765 33.4735 21.9514 33.2485C21.7264 33.0234 21.5999 32.7182 21.5999 32.4C21.5999 32.0817 21.7264 31.7765 21.9514 31.5514C22.1765 31.3264 22.4817 31.1999 22.7999 31.1999H32.3999C32.7182 31.1999 33.0234 31.3264 33.2485 31.5514C33.4735 31.7765 33.5999 32.0817 33.5999 32.4C33.5999 32.7182 33.4735 33.0234 33.2485 33.2485C33.0234 33.4735 32.7182 33.5999 32.3999 33.5999H22.7999ZM17.9999 17.4C17.9999 17.8773 17.8103 18.3352 17.4727 18.6727C17.1352 19.0103 16.6773 19.2 16.1999 19.2C15.7226 19.2 15.2647 19.0103 14.9271 18.6727C14.5896 18.3352 14.3999 17.8773 14.3999 17.4C14.3999 16.9226 14.5896 16.4647 14.9271 16.1272C15.2647 15.7896 15.7226 15.6 16.1999 15.6C16.6773 15.6 17.1352 15.7896 17.4727 16.1272C17.8103 16.4647 17.9999 16.9226 17.9999 17.4ZM22.7999 16.8C22.4817 16.8 22.1765 16.9264 21.9514 17.1514C21.7264 17.3765 21.5999 17.6817 21.5999 18C21.5999 18.3182 21.7264 18.6234 21.9514 18.8485C22.1765 19.0735 22.4817 19.2 22.7999 19.2H32.3999C32.7182 19.2 33.0234 19.0735 33.2485 18.8485C33.4735 18.6234 33.5999 18.3182 33.5999 18C33.5999 17.6817 33.4735 17.3765 33.2485 17.1514C33.0234 16.9264 32.7182 16.8 32.3999 16.8H22.7999ZM22.7999 24C22.4817 24 22.1765 24.1264 21.9514 24.3514C21.7264 24.5765 21.5999 24.8817 21.5999 25.1999C21.5999 25.5182 21.7264 25.8234 21.9514 26.0485C22.1765 26.2735 22.4817 26.4 22.7999 26.4H32.3999C32.7182 26.4 33.0234 26.2735 33.2485 26.0485C33.4735 25.8234 33.5999 25.5182 33.5999 25.1999C33.5999 24.8817 33.4735 24.5765 33.2485 24.3514C33.0234 24.1264 32.7182 24 32.3999 24H22.7999ZM10.7999 40.7999C12.6863 40.7999 14.4287 40.1759 15.8303 39.1271L21.9503 45.2472C22.0618 45.3587 22.1941 45.4473 22.3397 45.5077C22.4853 45.5681 22.6414 45.5993 22.7991 45.5994C22.9568 45.5995 23.1129 45.5686 23.2586 45.5083C23.4043 45.4481 23.5368 45.3598 23.6483 45.2483C23.7599 45.1369 23.8484 45.0046 23.9089 44.859C23.9693 44.7134 24.0005 44.5573 24.0006 44.3996C24.0007 44.2419 23.9698 44.0858 23.9095 43.9401C23.8493 43.7943 23.761 43.6619 23.6495 43.5504L17.5295 37.4303C18.6624 35.9154 19.2507 34.0625 19.1992 32.1715C19.1478 30.2806 18.4596 28.4623 17.2461 27.0112C16.0326 25.5601 14.3648 24.5611 12.5128 24.1759C10.6607 23.7908 8.73293 24.042 7.04147 24.8889C5.35001 25.7358 3.99394 27.1289 3.19283 28.8425C2.39171 30.5562 2.19246 32.4901 2.62733 34.331C3.06221 36.172 4.10574 37.8123 5.58897 38.9864C7.07221 40.1604 8.90829 40.7994 10.7999 40.7999ZM10.7999 38.4C9.20864 38.4 7.68252 37.7678 6.5573 36.6426C5.43208 35.5174 4.79994 33.9912 4.79994 32.4C4.79994 30.8087 5.43208 29.2825 6.5573 28.1573C7.68252 27.0321 9.20864 26.4 10.7999 26.4C12.3912 26.4 13.9174 27.0321 15.0426 28.1573C16.1678 29.2825 16.7999 30.8087 16.7999 32.4C16.7999 33.9912 16.1678 35.5174 15.0426 36.6426C13.9174 37.7678 12.3912 38.4 10.7999 38.4Z" fill="#022C22"/>
</svg>
