<svg width="48" height="48" viewBox="0 0 48 48" fill="none" xmlns="http://www.w3.org/2000/svg">
<path d="M4 42C3.99983 38.9207 4.88827 35.9067 6.55869 33.3198C8.22911 30.7329 10.6105 28.683 13.4172 27.4161C16.2239 26.1491 19.3365 25.719 22.3815 26.1774C25.4266 26.6357 28.2747 27.963 30.584 30" stroke="#022C22" stroke-width="3" stroke-linecap="round" stroke-linejoin="round"/>
<path d="M20 26C25.5228 26 30 21.5228 30 16C30 10.4772 25.5228 6 20 6C14.4772 6 10 10.4772 10 16C10 21.5228 14.4772 26 20 26Z" stroke="#022C22" stroke-width="3" stroke-linecap="round" stroke-linejoin="round"/>
<path d="M32 38L36 42L44 34" stroke="#022C22" stroke-width="3" stroke-linecap="round" stroke-linejoin="round"/>
</svg>
