<svg width="48" height="48" viewBox="0 0 48 48" fill="none" xmlns="http://www.w3.org/2000/svg">
<path d="M36.0004 37.4383C36.4954 37.4792 36.9961 37.5 37.5016 37.5C39.5983 37.5 41.6112 37.1415 43.4825 36.4825C43.4952 36.3233 43.5016 36.1624 43.5016 36C43.5016 32.6863 40.8153 30 37.5016 30C36.2464 30 35.0812 30.3855 34.1179 31.0445M36.0004 37.4383C36.0005 37.4588 36.0005 37.4794 36.0005 37.5C36.0005 37.95 35.9757 38.3942 35.9275 38.8313C32.4139 40.8473 28.3418 42 24.0005 42C19.6591 42 15.587 40.8473 12.0735 38.8313C12.0253 38.3942 12.0005 37.95 12.0005 37.5C12.0005 37.4795 12.0005 37.459 12.0006 37.4385M36.0004 37.4383C35.9885 35.0852 35.2994 32.8922 34.1179 31.0445M34.1179 31.0445C31.9861 27.7104 28.2514 25.5 24.0005 25.5C19.7501 25.5 16.0158 27.7098 13.8839 31.0432M13.8839 31.0432C12.9209 30.385 11.7564 30 10.502 30C7.18824 30 4.50195 32.6863 4.50195 36C4.50195 36.1624 4.50841 36.3233 4.52107 36.4825C6.39234 37.1415 8.40528 37.5 10.502 37.5C11.0066 37.5 11.5065 37.4792 12.0006 37.4385M13.8839 31.0432C12.7019 32.8913 12.0125 35.0848 12.0006 37.4385M30.0005 13.5C30.0005 16.8137 27.3142 19.5 24.0005 19.5C20.6868 19.5 18.0005 16.8137 18.0005 13.5C18.0005 10.1863 20.6868 7.5 24.0005 7.5C27.3142 7.5 30.0005 10.1863 30.0005 13.5ZM42.0005 19.5C42.0005 21.9853 39.9858 24 37.5005 24C35.0152 24 33.0005 21.9853 33.0005 19.5C33.0005 17.0147 35.0152 15 37.5005 15C39.9858 15 42.0005 17.0147 42.0005 19.5ZM15.0005 19.5C15.0005 21.9853 12.9858 24 10.5005 24C8.01521 24 6.00049 21.9853 6.00049 19.5C6.00049 17.0147 8.01521 15 10.5005 15C12.9858 15 15.0005 17.0147 15.0005 19.5Z" stroke="#0F172A" stroke-width="3" stroke-linecap="round" stroke-linejoin="round"/>
</svg>
